#N canvas 39 56 1356 996 12;
#X obj 38 117 soundfiler;
#X obj 38 43 openpanel;
#N canvas 0 22 450 278 (subpatch) 0;
#X array playerLeft 2.45319e+07 float 0;
#X coords 0 1 2.45319e+07 -1 200 140 1 0 0;
#X restore 43 215 graph;
#X obj 38 19 bng 19 250 50 0 empty empty Load\ Audio\ File 0 -10 1 12 #00ff04 #ffffff #202020;
#X listbox 38 67 121 0 0 0 - - - 0;
#X obj 110 44 bng 19 250 50 0 empty empty Send/Play\ Again 0 -10 0 12 #ff8300 #000000 #000000;
#X msg 38 91 read -resize -skip 0 \$1 playerLeft;
#X msg 302 91 read -resize -skip 1 \$1 playerRight;
#N canvas 0 22 450 278 (subpatch) 0;
#X array playerRight 2.45319e+07 float 0;
#X coords 0 1 2.45319e+07 -1 200 140 1 0 0;
#X restore 258 215 graph;
#X obj 902 46 switch~;
#X obj 902 23 tgl 19 0 empty empty DSP\ ON/OFF 0 -10 0 12 #dfdfdf #000000 #000000 0 1;
#N canvas 453 121 862 844 playbackEngine 1;
#X obj 424 363 phasor~;
#X obj 203 94 bng 19 250 50 0 empty empty empty 0 -10 0 12 #fcfcfc #000000 #000000;
#X obj 203 187 array size playerLeft;
#X obj 423 187 array size playerRight;
#X obj 424 455 *~;
#X obj 203 362 phasor~;
#X obj 203 445 *~;
#X obj 84 202 samplerate~;
#X obj 203 46 receive arraySize;
#X obj 84 178 loadbang;
#X obj 62 178 bng 19 250 50 0 empty empty empty 0 -10 0 12 #fcfcfc #000000 #000000;
#X obj 502 212 receive sampleRate;
#X obj 423 254 /;
#X obj 203 252 /;
#X obj 84 228 float;
#X obj 84 252 send sampleRate;
#X obj 203 118 delay 10;
#X obj 239 253 float;
#X obj 454 254 float, f 7;
#X obj 442 388 receive sizeR;
#X obj 454 278 send sizeR;
#X obj 221 386 receive sizeL;
#X obj 239 277 send sizeL;
#X obj 239 161 delay 10;
#X obj 203 480 tabread4~ playerLeft;
#X obj 424 481 tabread4~ playerRight;
#X obj 203 70 delay 100;
#X obj 424 317 expr 1 / $f1;
#X obj 203 310 expr 1 / $f1;
#X floatatom 203 337 18 0 0 0 - - - 0;
#X floatatom 424 340 19 0 0 0 - - - 0;
#X obj 221 410 - 1;
#X obj 442 412 - 1;
#X obj 203 529 send~ leftChannel;
#X obj 424 530 send~ rightChannel;
#X obj 203 504 *~;
#X obj 424 505 *~;
#X obj 258 429 receive volumeControl;
#X obj 258 453 pow 4;
#X msg 350 337 0;
#X text 349 317 restart;
#X obj 303 299 receive reStart;
#N canvas 1289 279 608 394 stopAudio 0;
#X obj 32 201 >;
#X obj 32 154 snapshot~;
#X obj 32 77 metro 10;
#X obj 32 53 tgl 19 0 empty empty empty 0 -10 0 12 #fcfcfc #000000 #000000 0 1;
#X floatatom 32 178 15 0 0 0 - - - 0;
#X obj 32 224 tgl 19 0 empty empty empty 0 -10 0 12 #fcfcfc #000000 #000000 0 1;
#X obj 32 247 - 1;
#X obj 32 271 tgl 19 0 empty empty empty 0 -10 0 12 #fcfcfc #000000 #000000 0 1;
#X obj 32 27 loadbang;
#X obj 154 136 receive sizeL;
#X obj 78 113 catch~ leftAudioLocation;
#X obj 260 192 >;
#X obj 260 145 snapshot~;
#X obj 260 68 metro 10;
#X obj 260 44 tgl 19 0 empty empty empty 0 -10 0 12 #fcfcfc #000000 #000000 0 1;
#X floatatom 260 169 15 0 0 0 - - - 0;
#X obj 260 215 tgl 19 0 empty empty empty 0 -10 0 12 #fcfcfc #000000 #000000 0 1;
#X obj 260 238 - 1;
#X obj 260 262 tgl 19 0 empty empty empty 0 -10 0 12 #fcfcfc #000000 #000000 0 1;
#X obj 260 18 loadbang;
#X obj 392 128 receive sizeR;
#X obj 306 104 catch~ rightAudioLocation;
#X obj 154 160 - 1;
#X obj 392 152 - 1;
#X obj 260 290 sig~;
#X obj 260 314 lop~ 5;
#X obj 32 297 sig~;
#X obj 32 321 lop~ 5;
#X obj 32 349 outlet~ leftMute;
#X obj 260 346 outlet~ rightMute;
#X connect 0 0 5 0;
#X connect 1 0 4 0;
#X connect 2 0 1 0;
#X connect 3 0 2 0;
#X connect 4 0 0 0;
#X connect 5 0 6 0;
#X connect 6 0 7 0;
#X connect 7 0 26 0;
#X connect 8 0 3 0;
#X connect 9 0 22 0;
#X connect 10 0 1 0;
#X connect 11 0 16 0;
#X connect 12 0 15 0;
#X connect 13 0 12 0;
#X connect 14 0 13 0;
#X connect 15 0 11 0;
#X connect 16 0 17 0;
#X connect 17 0 18 0;
#X connect 18 0 24 0;
#X connect 19 0 14 0;
#X connect 20 0 23 0;
#X connect 21 0 12 0;
#X connect 22 0 0 1;
#X connect 23 0 11 1;
#X connect 24 0 25 0;
#X connect 25 0 29 0;
#X connect 26 0 27 0;
#X connect 27 0 28 0;
#X restore 174 632 pd stopAudio;
#X obj 155 555 throw~ leftAudioLocation;
#X obj 380 554 throw~ rightAudioLocation;
#X obj 156 715 dac~ 1 2;
#X obj 156 590 receive~ leftChannel;
#X obj 305 590 receive~ rightChannel;
#X obj 156 678 *~;
#X obj 305 672 *~;
#X connect 0 0 4 0;
#X connect 1 0 10 0;
#X connect 1 0 16 0;
#X connect 2 0 13 0;
#X connect 2 0 17 1;
#X connect 3 0 12 0;
#X connect 3 0 18 1;
#X connect 4 0 25 0;
#X connect 4 0 44 0;
#X connect 5 0 6 0;
#X connect 6 0 24 0;
#X connect 6 0 43 0;
#X connect 7 0 14 1;
#X connect 8 0 26 0;
#X connect 9 0 7 0;
#X connect 10 0 7 0;
#X connect 10 0 14 0;
#X connect 11 0 12 1;
#X connect 11 0 13 1;
#X connect 12 0 27 0;
#X connect 13 0 28 0;
#X connect 14 0 15 0;
#X connect 16 0 2 0;
#X connect 16 0 3 0;
#X connect 16 0 23 0;
#X connect 17 0 22 0;
#X connect 18 0 20 0;
#X connect 19 0 32 0;
#X connect 21 0 31 0;
#X connect 23 0 17 0;
#X connect 23 0 18 0;
#X connect 24 0 35 0;
#X connect 25 0 36 0;
#X connect 26 0 1 0;
#X connect 27 0 30 0;
#X connect 28 0 29 0;
#X connect 29 0 5 0;
#X connect 30 0 0 0;
#X connect 31 0 6 1;
#X connect 32 0 4 1;
#X connect 35 0 33 0;
#X connect 36 0 34 0;
#X connect 37 0 38 0;
#X connect 38 0 35 1;
#X connect 38 0 36 1;
#X connect 39 0 5 1;
#X connect 39 0 0 1;
#X connect 41 0 39 0;
#X connect 42 0 48 1;
#X connect 42 1 49 1;
#X connect 46 0 48 0;
#X connect 47 0 49 0;
#X connect 48 0 45 0;
#X connect 49 0 45 1;
#X restore 902 70 pd playbackEngine;
#X obj 904 113 vsl 19 162 0 1 0 0 empty empty Volume\ Control 0 -9 0 12 #fcfcfc #000000 #000000 0 1;
#X obj 904 287 send volumeControl;
#X obj 38 141 bang;
#X obj 38 165 send reStart;
#X obj 143 45 send arraySize;
#X connect 0 0 14 0;
#X connect 1 0 4 0;
#X connect 3 0 1 0;
#X connect 4 0 6 0;
#X connect 4 0 7 0;
#X connect 5 0 4 0;
#X connect 5 0 16 0;
#X connect 6 0 0 0;
#X connect 7 0 0 0;
#X connect 10 0 9 0;
#X connect 12 0 13 0;
#X connect 14 0 15 0;
